<?xml version="1.0" encoding="UTF-8"?>
<svg xmlns="http://www.w3.org/2000/svg" xmlns:xlink="http://www.w3.org/1999/xlink" width="14px" height="14px" viewBox="0 0 14 14" version="1.1">
<g id="surface1">
<path style=" stroke:none;fill-rule:nonzero;fill:rgb(0%,0%,0%);fill-opacity:1;" d="M 2.535156 3.027344 C 2.488281 3.046875 2.476562 3.070312 2.476562 3.125 C 2.476562 3.140625 2.582031 3.339844 2.714844 3.566406 L 2.957031 3.976562 L 2.132812 4.808594 C 1.679688 5.265625 1.304688 5.652344 1.292969 5.667969 C 1.289062 5.6875 1.285156 5.714844 1.289062 5.734375 C 1.292969 5.753906 1.644531 6.109375 2.15625 6.617188 C 2.628906 7.085938 3.90625 8.355469 4.992188 9.441406 L 6.96875 11.421875 L 7.023438 11.410156 C 7.070312 11.402344 7.324219 11.15625 9.894531 8.582031 C 12.570312 5.90625 12.714844 5.761719 12.714844 5.714844 C 12.714844 5.667969 12.664062 5.617188 11.875 4.824219 L 11.035156 3.984375 L 11.28125 3.5625 C 11.414062 3.332031 11.527344 3.132812 11.527344 3.117188 C 11.527344 3.101562 11.511719 3.074219 11.492188 3.054688 L 11.460938 3.015625 L 7.019531 3.011719 C 3.453125 3.011719 2.566406 3.015625 2.535156 3.027344 Z M 4.957031 3.601562 C 5.054688 3.640625 5.058594 3.726562 4.96875 3.886719 C 4.820312 4.148438 4.644531 4.429688 4.617188 4.449219 C 4.574219 4.480469 4.492188 4.476562 4.453125 4.4375 C 4.417969 4.40625 4.121094 3.910156 4.066406 3.792969 C 4.039062 3.730469 4.035156 3.714844 4.046875 3.679688 C 4.058594 3.65625 4.082031 3.621094 4.105469 3.609375 C 4.144531 3.585938 4.179688 3.582031 4.53125 3.582031 C 4.828125 3.582031 4.917969 3.585938 4.957031 3.601562 Z M 7.199219 3.855469 C 7.28125 4 7.574219 4.515625 7.847656 4.996094 C 8.121094 5.476562 8.550781 6.230469 8.800781 6.667969 C 9.050781 7.109375 9.257812 7.476562 9.257812 7.484375 C 9.257812 7.496094 9.246094 7.507812 9.238281 7.515625 C 9.226562 7.523438 8.457031 7.53125 7.003906 7.539062 C 4.675781 7.550781 4.746094 7.550781 4.746094 7.492188 C 4.746094 7.480469 4.808594 7.355469 4.890625 7.21875 C 5.324219 6.464844 6.003906 5.277344 6.441406 4.511719 C 6.710938 4.035156 6.945312 3.628906 6.953125 3.613281 C 6.96875 3.589844 6.984375 3.582031 7.011719 3.585938 C 7.042969 3.589844 7.066406 3.621094 7.199219 3.855469 Z M 9.925781 3.632812 C 9.996094 3.710938 9.992188 3.722656 9.726562 4.175781 C 9.65625 4.296875 9.589844 4.40625 9.578125 4.417969 C 9.539062 4.46875 9.460938 4.484375 9.394531 4.453125 C 9.335938 4.421875 8.96875 3.796875 8.96875 3.722656 C 8.96875 3.675781 9.011719 3.613281 9.054688 3.59375 C 9.070312 3.589844 9.265625 3.585938 9.484375 3.585938 L 9.886719 3.589844 Z M 9.925781 3.632812 "/>
<path style=" stroke:none;fill-rule:nonzero;fill:rgb(0%,0%,0%);fill-opacity:1;" d="M 6.425781 6.085938 C 6.355469 6.136719 6.324219 6.1875 6.324219 6.253906 C 6.324219 6.304688 6.363281 6.375 6.578125 6.75 C 6.714844 6.988281 6.847656 7.207031 6.871094 7.230469 C 6.914062 7.277344 6.921875 7.28125 7.003906 7.28125 C 7.082031 7.28125 7.097656 7.273438 7.128906 7.246094 C 7.160156 7.21875 7.582031 6.503906 7.660156 6.347656 C 7.710938 6.253906 7.675781 6.136719 7.585938 6.082031 C 7.542969 6.058594 7.515625 6.054688 7.003906 6.054688 C 6.472656 6.054688 6.472656 6.054688 6.425781 6.085938 Z M 6.425781 6.085938 "/>
</g>
</svg>
